<?xml version="1.0" encoding="UTF-8" standalone="no"?><!DOCTYPE svg PUBLIC "-//W3C//DTD SVG 1.1//EN" "http://www.w3.org/Graphics/SVG/1.1/DTD/svg11.dtd"><svg width="100%" height="100%" viewBox="0 0 267 267" version="1.1" xmlns="http://www.w3.org/2000/svg" xmlns:xlink="http://www.w3.org/1999/xlink" xml:space="preserve" xmlns:serif="http://www.serif.com/" style="fill-rule:evenodd;clip-rule:evenodd;stroke-linejoin:round;stroke-miterlimit:2;"><g id="Artboard"><circle id="Oval" cx="133.333" cy="133.333" r="133.333" style="fill:url(#_Linear1);"/><path id="Path-3" d="M60.354,131.926c38.869,-16.935 64.788,-28.099 77.757,-33.493c37.028,-15.401 44.722,-18.077 49.737,-18.165c1.103,-0.019 3.569,0.254 5.167,1.55c1.349,1.095 1.72,2.573 1.898,3.611c0.178,1.038 0.399,3.402 0.223,5.249c-2.007,21.083 -10.689,72.246 -15.106,95.86c-1.869,9.992 -5.549,13.342 -9.112,13.67c-7.743,0.713 -13.623,-5.117 -21.122,-10.033c-11.735,-7.692 -18.365,-12.481 -29.756,-19.988c-13.164,-8.675 -4.63,-13.443 2.872,-21.235c1.963,-2.039 36.079,-33.07 36.739,-35.885c0.083,-0.352 0.159,-1.664 -0.62,-2.357c-0.78,-0.693 -1.93,-0.456 -2.761,-0.268c-1.177,0.267 -19.924,12.658 -56.241,37.173c-5.321,3.654 -10.141,5.434 -14.459,5.341c-4.761,-0.103 -13.918,-2.692 -20.726,-4.905c-8.35,-2.714 -14.986,-4.149 -14.409,-8.759c0.301,-2.401 3.607,-4.856 9.919,-7.366Z" style="fill:#fff;"/></g><defs><linearGradient id="_Linear1" x1="0" y1="0" x2="1" y2="0" gradientUnits="userSpaceOnUse" gradientTransform="matrix(0,264.688908,-264.688908,0,133.333333,0)"><stop offset="0" style="stop-color:#2aabee;stop-opacity:1"/><stop offset="1" style="stop-color:#229ed9;stop-opacity:1"/></linearGradient></defs></svg>