<svg width="64" height="64" viewBox="0 0 64 64" fill="none" xmlns="http://www.w3.org/2000/svg">
<g clip-path="url(#clip0_34_18)">
<path d="M30.6867 64H33.3517C47.8182 64 55.0528 64 59.5456 59.5072C64.0384 55.0144 64 47.7824 64 33.3517V30.6483C64 16.2202 64 8.98561 59.5456 4.49281C55.0912 1.26953e-05 47.8182 0 33.3517 0H30.6867C16.2176 0 8.9856 1.26953e-05 4.4928 4.49281C-2.92969e-06 8.98561 0 16.215 0 30.6483V33.3517C0 47.7824 -2.92969e-06 55.0144 4.4928 59.5072C8.9856 64 16.2176 64 30.6867 64Z" fill="black"/>
<path d="M34.3434 46.1437C19.9127 46.1437 11.1549 36.1316 10.8145 19.4941H18.1233C18.3511 31.7156 23.9114 36.9021 28.1738 37.9594V19.4941H35.1805V30.0388C39.2919 29.5831 43.5927 24.7857 45.0417 19.4941H51.9306C50.8273 26.0042 46.145 30.8017 42.8324 32.7805C46.145 34.3805 51.4749 38.5687 53.5306 46.1437H45.9556C44.3556 41.08 40.4337 37.1581 35.1805 36.6257V46.1437H34.3434Z" fill="white"/>
</g>
<defs>
<clipPath id="clip0_34_18">
<rect width="64" height="64" fill="white"/>
</clipPath>
</defs>
</svg>
